<svg height="512pt" viewBox="-45 0 512 512" width="512pt" xmlns="http://www.w3.org/2000/svg"><path d="m90 210h85v212h157v-332h-242zm0 0"/><path d="m60 218.785156v-137.570312l-51.667969-51.667969c-5.285156 8.933594-8.332031 19.34375-8.332031 30.453125v180c0 11.109375 3.046875 21.519531 8.332031 30.453125zm0 0"/><path d="m362 81.214844v349.570312l51.667969 51.667969c5.285156-8.933594 8.332031-19.34375 8.332031-30.453125v-392c0-11.109375-3.046875-21.519531-8.332031-30.453125zm0 0"/><path d="m340.785156 452h-174.570312l-51.667969 51.667969c8.933594 5.285156 19.34375 8.332031 30.453125 8.332031h217c11.109375 0 21.519531-3.046875 30.453125-8.332031zm0 0"/><path d="m123.785156 240h-42.570312l-51.667969 51.667969c8.933594 5.285156 19.34375 8.332031 30.453125 8.332031h3.785156zm0 0"/><path d="m145 430.785156v-169.570312l-60 60v130.785156c0 11.109375 3.046875 21.519531 8.332031 30.453125zm0 0"/><path d="m81.214844 60h259.570312l51.667969-51.667969c-8.933594-5.285156-19.34375-8.332031-30.453125-8.332031h-302c-11.109375 0-21.519531 3.046875-30.453125 8.332031zm0 0"/></svg>